<?xml version="1.0" standalone="no"?>
<!DOCTYPE svg PUBLIC "-//W3C//DTD SVG 20010904//EN"
 "http://www.w3.org/TR/2001/REC-SVG-20010904/DTD/svg10.dtd">
<svg version="1.0" xmlns="http://www.w3.org/2000/svg"
 width="700.000000pt" height="700.000000pt" viewBox="0 0 700.000000 700.000000"
 preserveAspectRatio="xMidYMid meet">
<metadata>
Created by potrace 1.14, written by Peter Selinger 2001-2017
</metadata>
<g transform="translate(0.000000,700.000000) scale(0.100000,-0.100000)"
fill="#000000" stroke="none">
<path d="M865 6989 c-274 -40 -509 -225 -612 -479 -56 -139 -53 38 -53 -3010
0 -3048 -3 -2871 53 -3010 94 -231 302 -410 546 -467 72 -17 217 -18 2706 -18
l2630 0 81 22 c269 71 473 267 556 533 l23 75 0 2865 0 2865 -23 75 c-83 263
-282 457 -550 533 l-77 22 -2610 1 c-1450 1 -2637 -2 -2670 -7z m1293 -599
c39 -73 -21 -327 -127 -539 -29 -57 -51 -104 -49 -105 2 -1 37 -22 78 -46 123
-71 277 -179 409 -285 164 -133 171 -139 171 -152 0 -13 -102 -96 -168 -137
-136 -85 -358 -176 -513 -210 l-75 -17 -2 -97 c-3 -124 -27 -343 -55 -497
l-22 -120 -30 3 c-43 5 -138 47 -240 107 -232 136 -454 353 -543 531 -49 98
-65 166 -60 258 6 93 28 150 82 214 l36 44 -46 56 c-73 89 -87 125 -92 227 -7
161 47 277 203 430 150 148 326 244 557 305 92 24 149 34 313 54 17 2 59 3 95
2 58 -1 66 -4 78 -26z m1994 -82 c43 -20 97 -50 121 -67 l44 -30 60 59 c82 79
101 82 227 33 129 -50 139 -63 144 -187 4 -84 -8 -177 -34 -272 -4 -16 25 -54
132 -175 76 -85 140 -154 143 -154 3 0 62 19 131 42 252 84 482 110 581 66
l47 -21 36 -110 c27 -79 35 -118 30 -138 -10 -39 -105 -131 -183 -179 -35 -21
-106 -57 -156 -80 l-92 -41 53 -90 c95 -157 142 -325 114 -408 -8 -27 -43 -65
-128 -143 -122 -110 -159 -133 -215 -133 -82 0 -221 62 -342 153 -73 54 -195
171 -283 270 l-51 57 -103 -29 c-57 -16 -115 -32 -130 -35 -20 -4 -37 -25 -71
-84 -82 -141 -191 -252 -249 -252 -21 0 -196 68 -217 84 -28 22 -42 78 -42
165 0 151 34 278 157 595 41 105 74 194 74 199 0 5 -28 43 -62 86 -72 89 -134
183 -176 266 -69 139 -92 287 -53 351 10 16 73 79 141 138 l122 108 77 -4 c63
-3 90 -10 153 -40z m1554 -2904 c73 -23 136 -74 234 -190 47 -55 140 -165 207
-245 68 -79 136 -169 152 -199 53 -99 59 -231 15 -341 -15 -36 -15 -42 1 -82
55 -135 26 -306 -68 -406 -71 -75 -524 -445 -573 -468 -120 -55 -241 -52 -355
8 -70 38 -84 52 -319 334 -237 284 -255 316 -255 460 0 80 4 109 21 145 l21
45 -21 45 c-16 36 -20 66 -21 150 0 93 3 111 27 162 32 69 87 130 203 223 48
39 157 128 243 199 86 71 176 138 199 148 92 41 189 45 289 12z m-1662 -322
c106 -49 190 -144 221 -253 14 -50 15 -126 13 -615 l-3 -559 -32 -67 c-40 -85
-106 -151 -191 -191 l-67 -32 -1555 0 -1555 0 -65 31 c-112 53 -194 156 -220
274 -8 39 -11 209 -8 600 l3 545 31 65 c38 80 78 128 144 170 97 62 -7 59
1685 57 l1550 -2 49 -23z"/>
</g>
</svg>
